<svg xmlns="http://www.w3.org/2000/svg" xmlns:xlink="http://www.w3.org/1999/xlink" width="500" zoomAndPan="magnify" viewBox="0 0 375 374.999991" height="500" preserveAspectRatio="xMidYMid meet" version="1.0"><defs><clipPath id="d9e87de455"><path d="M 104.617188 115.804688 L 270.367188 115.804688 L 270.367188 281.554688 L 104.617188 281.554688 Z M 104.617188 115.804688 " clip-rule="nonzero"/></clipPath></defs><g clip-path="url(#d9e87de455)"><path fill="#ffffff" d="M 270.359375 222.539062 C 270.359375 230.929688 268.941406 238.71875 266.109375 245.910156 C 263.28125 253.105469 259.277344 259.34375 254.109375 264.628906 C 248.941406 269.914062 242.707031 274.054688 235.414062 277.050781 C 228.121094 280.042969 220.011719 281.542969 211.082031 281.542969 C 206.078125 281.542969 201.285156 281.078125 196.714844 280.152344 C 192.144531 279.230469 187.875 277.949219 183.894531 276.3125 C 179.925781 274.679688 176.226562 272.773438 172.796875 270.589844 C 169.367188 268.414062 166.238281 266.125 163.40625 263.726562 L 163.40625 234.136719 C 163.191406 234.140625 162.972656 234.140625 162.753906 234.140625 C 154.371094 234.140625 146.640625 232.617188 139.570312 229.566406 C 132.492188 226.515625 126.367188 222.347656 121.199219 217.058594 C 116.027344 211.78125 111.972656 205.539062 109.03125 198.34375 C 106.09375 191.15625 104.625 183.417969 104.625 175.136719 C 104.625 166.960938 106.070312 159.28125 108.953125 152.085938 C 111.835938 144.898438 115.894531 138.605469 121.117188 133.207031 C 126.34375 127.8125 132.542969 123.5625 139.730469 120.460938 C 146.914062 117.355469 154.863281 115.800781 163.570312 115.800781 C 168.796875 115.800781 173.558594 116.234375 177.855469 117.105469 C 182.15625 117.984375 186.105469 119.207031 189.695312 120.785156 C 193.285156 122.367188 196.605469 124.246094 199.65625 126.421875 C 202.699219 128.605469 205.585938 131 208.3125 133.617188 L 195.410156 148.492188 C 190.835938 144.242188 185.992188 140.808594 180.875 138.195312 C 175.757812 135.578125 169.941406 134.269531 163.40625 134.269531 C 157.960938 134.269531 152.925781 135.335938 148.304688 137.460938 C 143.675781 139.585938 139.675781 142.472656 136.304688 146.117188 C 132.925781 149.773438 130.316406 154.046875 128.464844 158.949219 C 126.609375 163.859375 125.6875 169.140625 125.6875 174.804688 C 125.6875 180.472656 126.609375 185.785156 128.464844 190.746094 C 130.316406 195.703125 132.925781 200.035156 136.304688 203.738281 C 139.675781 207.445312 143.675781 210.359375 148.304688 212.484375 C 152.925781 214.609375 157.960938 215.671875 163.40625 215.671875 L 212.0625 215.671875 L 212.0625 233.160156 L 182.835938 233.160156 L 182.835938 254.691406 C 186.324219 257.324219 190.425781 259.425781 195.164062 261.019531 C 199.902344 262.609375 204.992188 263.402344 210.429688 263.402344 C 216.308594 263.402344 221.617188 262.363281 226.351562 260.289062 C 231.085938 258.214844 235.167969 255.347656 238.597656 251.691406 C 242.027344 248.035156 244.667969 243.695312 246.519531 238.671875 C 248.371094 233.648438 249.292969 228.1875 249.292969 222.292969 C 249.292969 216.726562 248.34375 211.484375 246.433594 206.570312 C 244.53125 201.652344 241.921875 197.34375 238.597656 193.632812 C 235.277344 189.917969 231.359375 187 226.84375 184.867188 C 222.324219 182.734375 217.453125 181.671875 212.226562 181.671875 C 208.636719 181.671875 205.34375 181.972656 202.351562 182.574219 C 199.355469 183.171875 196.609375 183.988281 194.105469 185.023438 C 191.601562 186.0625 189.207031 187.339844 186.921875 188.867188 C 184.636719 190.390625 182.402344 192.082031 180.226562 193.929688 L 167.488281 178.730469 C 170.429688 176.222656 173.449219 174.019531 176.550781 172.109375 C 179.65625 170.207031 182.945312 168.597656 186.429688 167.289062 C 189.914062 165.984375 193.695312 164.976562 197.777344 164.265625 C 201.855469 163.558594 206.40625 163.203125 211.410156 163.203125 C 220.011719 163.203125 227.929688 164.78125 235.167969 167.941406 C 242.40625 171.105469 248.636719 175.378906 253.863281 180.773438 C 259.089844 186.167969 263.148438 192.460938 266.027344 199.652344 C 268.914062 206.847656 270.359375 214.472656 270.359375 222.539062 " fill-opacity="1" fill-rule="nonzero"/></g></svg>